<svg width="300" height="400" viewBox="0 0 300 400" xmlns="http://www.w3.org/2000/svg">
  <!-- Silo body (cylinder) -->
  <rect x="100" y="100" width="100" height="180" fill="#d3d3d3" stroke="#333" stroke-width="2"/>
  
  <!-- Silo top (dome) -->
  <ellipse cx="150" cy="100" rx="50" ry="20" fill="#e6e6e6" stroke="#333" stroke-width="2"/>
  
  <!-- Silo bottom cone for grain discharge -->
  <polygon points="100,280 150,320 200,280" fill="#c0c0c0" stroke="#333" stroke-width="2"/>
  
  <!-- Vertical seam lines for realism -->
  <line x1="125" y1="100" x2="125" y2="280" stroke="#999" stroke-width="1"/>
  <line x1="175" y1="100" x2="175" y2="280" stroke="#999" stroke-width="1"/>
  
  <!-- Horizontal bands/rings -->
  <line x1="100" y1="140" x2="200" y2="140" stroke="#999" stroke-width="1"/>
  <line x1="100" y1="180" x2="200" y2="180" stroke="#999" stroke-width="1"/>
  <line x1="100" y1="220" x2="200" y2="220" stroke="#999" stroke-width="1"/>
  <line x1="100" y1="260" x2="200" y2="260" stroke="#999" stroke-width="1"/>
  
  <!-- Access ladder -->
  <rect x="85" y="120" width="4" height="140" fill="#666"/>
  <rect x="75" y="130" width="20" height="2" fill="#666"/>
  <rect x="75" y="150" width="20" height="2" fill="#666"/>
  <rect x="75" y="170" width="20" height="2" fill="#666"/>
  <rect x="75" y="190" width="20" height="2" fill="#666"/>
  <rect x="75" y="210" width="20" height="2" fill="#666"/>
  <rect x="75" y="230" width="20" height="2" fill="#666"/>
  <rect x="75" y="250" width="20" height="2" fill="#666"/>
  
  <!-- Discharge outlet -->
  <rect x="145" y="320" width="10" height="15" fill="#333"/>
  
  <!-- Top vent/cap -->
  <circle cx="150" cy="85" r="5" fill="#333"/>
  <rect x="148" y="80" width="4" height="10" fill="#333"/>
</svg>